<svg xmlns="http://www.w3.org/2000/svg" xmlns:xlink="http://www.w3.org/1999/xlink" width="1080" zoomAndPan="magnify" viewBox="0 0 810 809.999993" height="1080" preserveAspectRatio="xMidYMid meet" version="1.0"><defs><clipPath id="429113bfa6"><path d="M 405 0 C 181.324219 0 0 181.324219 0 405 C 0 628.675781 181.324219 810 405 810 C 628.675781 810 810 628.675781 810 405 C 810 181.324219 628.675781 0 405 0 Z M 405 0 " clip-rule="nonzero"/></clipPath><clipPath id="87db0e7bea"><path d="M 158 157.804688 L 652 157.804688 L 652 652.054688 L 158 652.054688 Z M 158 157.804688 " clip-rule="nonzero"/></clipPath></defs><g clip-path="url(#429113bfa6)"><rect x="-81" width="972" fill="#000000" y="-80.999999" height="971.999992" fill-opacity="1"/></g><g clip-path="url(#87db0e7bea)"><path fill="#ffffff" d="M 452.039062 367.164062 L 635.957031 157.804688 L 592.390625 157.804688 L 432.625 339.550781 L 305.117188 157.804688 L 158.011719 157.804688 L 350.875 432.664062 L 158.011719 652.183594 L 201.582031 652.183594 L 370.1875 460.210938 L 504.875 652.183594 L 651.976562 652.183594 M 217.304688 189.980469 L 284.238281 189.980469 L 592.355469 621.589844 L 525.40625 621.589844 " fill-opacity="1" fill-rule="nonzero"/></g></svg>