<svg xmlns="http://www.w3.org/2000/svg" xmlns:xlink="http://www.w3.org/1999/xlink" width="1080" zoomAndPan="magnify" viewBox="0 0 810 809.999993" height="1080" preserveAspectRatio="xMidYMid meet" version="1.0"><defs><clipPath id="be8da584ea"><path d="M 0 1.34375 L 808 1.34375 L 808 809 L 0 809 Z M 0 1.34375 " clip-rule="nonzero"/></clipPath><clipPath id="bba2163252"><path d="M 807.625 405.203125 C 807.625 411.808594 807.460938 418.40625 807.136719 425.003906 C 806.8125 431.601562 806.328125 438.1875 805.679688 444.761719 C 805.03125 451.335938 804.222656 457.886719 803.253906 464.421875 C 802.285156 470.953125 801.15625 477.460938 799.867188 483.9375 C 798.578125 490.417969 797.132812 496.859375 795.527344 503.265625 C 793.921875 509.675781 792.164062 516.039062 790.246094 522.359375 C 788.328125 528.679688 786.257812 534.949219 784.03125 541.167969 C 781.804688 547.386719 779.429688 553.546875 776.902344 559.652344 C 774.375 565.753906 771.699219 571.789062 768.875 577.761719 C 766.050781 583.730469 763.082031 589.628906 759.96875 595.453125 C 756.855469 601.28125 753.597656 607.023438 750.203125 612.691406 C 746.808594 618.355469 743.277344 623.933594 739.605469 629.425781 C 735.9375 634.917969 732.132812 640.316406 728.199219 645.621094 C 724.265625 650.925781 720.203125 656.132812 716.011719 661.238281 C 711.820312 666.34375 707.507812 671.34375 703.074219 676.238281 C 698.636719 681.132812 694.085938 685.914062 689.414062 690.585938 C 684.742188 695.257812 679.960938 699.808594 675.066406 704.246094 C 670.171875 708.679688 665.171875 712.992188 660.066406 717.183594 C 654.960938 721.375 649.753906 725.4375 644.449219 729.371094 C 639.144531 733.304688 633.746094 737.109375 628.253906 740.777344 C 622.761719 744.449219 617.183594 747.980469 611.519531 751.375 C 605.851562 754.773438 600.109375 758.027344 594.28125 761.140625 C 588.457031 764.253906 582.558594 767.222656 576.589844 770.046875 C 570.617188 772.871094 564.582031 775.546875 558.476562 778.074219 C 552.375 780.601562 546.214844 782.976562 539.996094 785.203125 C 533.777344 787.429688 527.507812 789.5 521.1875 791.417969 C 514.867188 793.335938 508.503906 795.09375 502.09375 796.699219 C 495.6875 798.304688 489.246094 799.753906 482.765625 801.039062 C 476.289062 802.328125 469.78125 803.457031 463.25 804.425781 C 456.714844 805.394531 450.164062 806.203125 443.589844 806.851562 C 437.015625 807.5 430.429688 807.984375 423.832031 808.308594 C 417.234375 808.632812 410.636719 808.796875 404.03125 808.796875 C 397.425781 808.796875 390.824219 808.632812 384.226562 808.308594 C 377.628906 807.984375 371.042969 807.5 364.472656 806.851562 C 357.898438 806.203125 351.34375 805.394531 344.808594 804.425781 C 338.277344 803.457031 331.769531 802.328125 325.292969 801.039062 C 318.8125 799.753906 312.371094 798.304688 305.964844 796.699219 C 299.558594 795.09375 293.195312 793.335938 286.871094 791.417969 C 280.550781 789.5 274.28125 787.429688 268.0625 785.203125 C 261.84375 782.976562 255.683594 780.601562 249.582031 778.074219 C 243.480469 775.546875 237.441406 772.871094 231.472656 770.046875 C 225.5 767.222656 219.601562 764.253906 213.777344 761.140625 C 207.953125 758.027344 202.207031 754.773438 196.542969 751.375 C 190.875 747.980469 185.296875 744.449219 179.804688 740.777344 C 174.3125 737.109375 168.914062 733.304688 163.609375 729.371094 C 158.304688 725.4375 153.097656 721.375 147.992188 717.183594 C 142.886719 712.992188 137.886719 708.679688 132.992188 704.246094 C 128.097656 699.808594 123.316406 695.257812 118.644531 690.585938 C 113.976562 685.914062 109.421875 681.132812 104.988281 676.238281 C 100.550781 671.34375 96.238281 666.34375 92.046875 661.238281 C 87.859375 656.132812 83.796875 650.925781 79.859375 645.621094 C 75.925781 640.316406 72.125 634.917969 68.453125 629.425781 C 64.785156 623.933594 61.25 618.355469 57.855469 612.691406 C 54.460938 607.023438 51.207031 601.28125 48.09375 595.453125 C 44.976562 589.628906 42.007812 583.730469 39.183594 577.761719 C 36.363281 571.789062 33.683594 565.753906 31.15625 559.652344 C 28.628906 553.546875 26.253906 547.386719 24.027344 541.167969 C 21.804688 534.949219 19.730469 528.679688 17.816406 522.359375 C 15.898438 516.039062 14.136719 509.675781 12.53125 503.265625 C 10.925781 496.859375 9.480469 490.417969 8.191406 483.9375 C 6.902344 477.460938 5.773438 470.953125 4.804688 464.421875 C 3.835938 457.886719 3.027344 451.335938 2.378906 444.761719 C 1.730469 438.1875 1.246094 431.601562 0.921875 425.003906 C 0.597656 418.40625 0.4375 411.808594 0.4375 405.203125 C 0.4375 398.597656 0.597656 391.996094 0.921875 385.398438 C 1.246094 378.800781 1.730469 372.214844 2.378906 365.644531 C 3.027344 359.070312 3.835938 352.515625 4.804688 345.980469 C 5.773438 339.449219 6.902344 332.941406 8.191406 326.464844 C 9.480469 319.988281 10.925781 313.542969 12.53125 307.136719 C 14.136719 300.730469 15.898438 294.367188 17.816406 288.042969 C 19.730469 281.722656 21.804688 275.453125 24.027344 269.234375 C 26.253906 263.015625 28.628906 256.855469 31.15625 250.753906 C 33.683594 244.652344 36.363281 238.613281 39.183594 232.644531 C 42.007812 226.671875 44.976562 220.773438 48.09375 214.949219 C 51.207031 209.125 54.460938 203.378906 57.855469 197.714844 C 61.25 192.046875 64.785156 186.46875 68.453125 180.976562 C 72.125 175.484375 75.925781 170.085938 79.859375 164.78125 C 83.796875 159.476562 87.859375 154.269531 92.046875 149.164062 C 96.238281 144.058594 100.550781 139.058594 104.988281 134.164062 C 109.421875 129.269531 113.976562 124.488281 118.644531 119.816406 C 123.316406 115.148438 128.097656 110.59375 132.992188 106.160156 C 137.886719 101.722656 142.886719 97.410156 147.992188 93.21875 C 153.097656 89.03125 158.304688 84.96875 163.609375 81.03125 C 168.914062 77.097656 174.3125 73.296875 179.804688 69.625 C 185.296875 65.957031 190.875 62.421875 196.542969 59.027344 C 202.207031 55.632812 207.953125 52.378906 213.777344 49.265625 C 219.601562 46.148438 225.5 43.179688 231.472656 40.359375 C 237.441406 37.535156 243.480469 34.859375 249.582031 32.328125 C 255.683594 29.800781 261.84375 27.425781 268.0625 25.199219 C 274.28125 22.976562 280.550781 20.902344 286.871094 18.988281 C 293.195312 17.070312 299.558594 15.308594 305.964844 13.703125 C 312.371094 12.097656 318.8125 10.652344 325.292969 9.363281 C 331.769531 8.074219 338.277344 6.945312 344.808594 5.976562 C 351.34375 5.007812 357.898438 4.199219 364.472656 3.550781 C 371.042969 2.902344 377.628906 2.417969 384.226562 2.09375 C 390.824219 1.769531 397.425781 1.609375 404.03125 1.609375 C 410.636719 1.609375 417.234375 1.769531 423.832031 2.09375 C 430.429688 2.417969 437.015625 2.902344 443.589844 3.550781 C 450.164062 4.199219 456.714844 5.007812 463.25 5.976562 C 469.78125 6.945312 476.289062 8.074219 482.765625 9.363281 C 489.246094 10.652344 495.6875 12.097656 502.09375 13.703125 C 508.503906 15.308594 514.867188 17.070312 521.1875 18.988281 C 527.507812 20.902344 533.777344 22.976562 539.996094 25.199219 C 546.214844 27.425781 552.375 29.800781 558.476562 32.328125 C 564.582031 34.859375 570.617188 37.535156 576.589844 40.359375 C 582.558594 43.179688 588.457031 46.148438 594.28125 49.265625 C 600.109375 52.378906 605.851562 55.632812 611.519531 59.027344 C 617.183594 62.421875 622.761719 65.957031 628.253906 69.625 C 633.746094 73.296875 639.144531 77.097656 644.449219 81.03125 C 649.753906 84.96875 654.960938 89.03125 660.066406 93.21875 C 665.171875 97.410156 670.171875 101.722656 675.066406 106.160156 C 679.960938 110.59375 684.742188 115.148438 689.414062 119.816406 C 694.085938 124.488281 698.636719 129.269531 703.074219 134.164062 C 707.507812 139.058594 711.820312 144.058594 716.011719 149.164062 C 720.203125 154.269531 724.265625 159.476562 728.199219 164.78125 C 732.132812 170.085938 735.9375 175.484375 739.605469 180.976562 C 743.277344 186.46875 746.808594 192.046875 750.203125 197.714844 C 753.597656 203.378906 756.855469 209.125 759.96875 214.949219 C 763.082031 220.773438 766.050781 226.671875 768.875 232.644531 C 771.699219 238.613281 774.375 244.652344 776.902344 250.753906 C 779.429688 256.855469 781.804688 263.015625 784.03125 269.234375 C 786.257812 275.453125 788.328125 281.722656 790.246094 288.042969 C 792.164062 294.367188 793.921875 300.730469 795.527344 307.136719 C 797.132812 313.542969 798.578125 319.988281 799.867188 326.464844 C 801.15625 332.941406 802.285156 339.449219 803.253906 345.984375 C 804.222656 352.515625 805.03125 359.070312 805.679688 365.644531 C 806.328125 372.214844 806.8125 378.800781 807.136719 385.398438 C 807.460938 391.996094 807.625 398.597656 807.625 405.203125 Z M 807.625 405.203125 " clip-rule="nonzero"/></clipPath><linearGradient x1="16" gradientTransform="matrix(28.828129, 0, 0, 28.828129, -57.220131, -56.04814)" y1="2" x2="16" gradientUnits="userSpaceOnUse" y2="29.999999" id="734658fb6b"><stop stop-opacity="1" stop-color="rgb(9.399414%, 67.498779%, 99.598694%)" offset="0"/><stop stop-opacity="1" stop-color="rgb(9.364319%, 67.385864%, 99.552917%)" offset="0.0078125"/><stop stop-opacity="1" stop-color="rgb(9.292603%, 67.16156%, 99.459839%)" offset="0.015625"/><stop stop-opacity="1" stop-color="rgb(9.222412%, 66.937256%, 99.368286%)" offset="0.0234375"/><stop stop-opacity="1" stop-color="rgb(9.152222%, 66.711426%, 99.275208%)" offset="0.03125"/><stop stop-opacity="1" stop-color="rgb(9.082031%, 66.487122%, 99.182129%)" offset="0.0390625"/><stop stop-opacity="1" stop-color="rgb(9.011841%, 66.261292%, 99.090576%)" offset="0.046875"/><stop stop-opacity="1" stop-color="rgb(8.940125%, 66.036987%, 98.997498%)" offset="0.0546875"/><stop stop-opacity="1" stop-color="rgb(8.869934%, 65.812683%, 98.905945%)" offset="0.0625"/><stop stop-opacity="1" stop-color="rgb(8.799744%, 65.586853%, 98.812866%)" offset="0.0703125"/><stop stop-opacity="1" stop-color="rgb(8.729553%, 65.362549%, 98.719788%)" offset="0.078125"/><stop stop-opacity="1" stop-color="rgb(8.657837%, 65.136719%, 98.628235%)" offset="0.0859375"/><stop stop-opacity="1" stop-color="rgb(8.587646%, 64.912415%, 98.535156%)" offset="0.09375"/><stop stop-opacity="1" stop-color="rgb(8.517456%, 64.68811%, 98.443604%)" offset="0.101562"/><stop stop-opacity="1" stop-color="rgb(8.447266%, 64.46228%, 98.350525%)" offset="0.109375"/><stop stop-opacity="1" stop-color="rgb(8.377075%, 64.237976%, 98.257446%)" offset="0.117187"/><stop stop-opacity="1" stop-color="rgb(8.305359%, 64.013672%, 98.165894%)" offset="0.125"/><stop stop-opacity="1" stop-color="rgb(8.235168%, 63.787842%, 98.072815%)" offset="0.132812"/><stop stop-opacity="1" stop-color="rgb(8.164978%, 63.563538%, 97.981262%)" offset="0.140625"/><stop stop-opacity="1" stop-color="rgb(8.094788%, 63.337708%, 97.888184%)" offset="0.148438"/><stop stop-opacity="1" stop-color="rgb(8.024597%, 63.113403%, 97.795105%)" offset="0.15625"/><stop stop-opacity="1" stop-color="rgb(7.952881%, 62.889099%, 97.703552%)" offset="0.164062"/><stop stop-opacity="1" stop-color="rgb(7.88269%, 62.663269%, 97.610474%)" offset="0.171875"/><stop stop-opacity="1" stop-color="rgb(7.8125%, 62.438965%, 97.518921%)" offset="0.179687"/><stop stop-opacity="1" stop-color="rgb(7.74231%, 62.214661%, 97.425842%)" offset="0.1875"/><stop stop-opacity="1" stop-color="rgb(7.670593%, 61.988831%, 97.332764%)" offset="0.195312"/><stop stop-opacity="1" stop-color="rgb(7.600403%, 61.764526%, 97.241211%)" offset="0.203125"/><stop stop-opacity="1" stop-color="rgb(7.530212%, 61.538696%, 97.148132%)" offset="0.210938"/><stop stop-opacity="1" stop-color="rgb(7.460022%, 61.314392%, 97.05658%)" offset="0.21875"/><stop stop-opacity="1" stop-color="rgb(7.389832%, 61.090088%, 96.963501%)" offset="0.226562"/><stop stop-opacity="1" stop-color="rgb(7.318115%, 60.864258%, 96.870422%)" offset="0.234375"/><stop stop-opacity="1" stop-color="rgb(7.247925%, 60.639954%, 96.77887%)" offset="0.242187"/><stop stop-opacity="1" stop-color="rgb(7.177734%, 60.414124%, 96.685791%)" offset="0.25"/><stop stop-opacity="1" stop-color="rgb(7.107544%, 60.189819%, 96.594238%)" offset="0.257812"/><stop stop-opacity="1" stop-color="rgb(7.037354%, 59.965515%, 96.50116%)" offset="0.265625"/><stop stop-opacity="1" stop-color="rgb(6.965637%, 59.739685%, 96.409607%)" offset="0.273437"/><stop stop-opacity="1" stop-color="rgb(6.895447%, 59.515381%, 96.316528%)" offset="0.28125"/><stop stop-opacity="1" stop-color="rgb(6.825256%, 59.291077%, 96.22345%)" offset="0.289062"/><stop stop-opacity="1" stop-color="rgb(6.755066%, 59.065247%, 96.131897%)" offset="0.296875"/><stop stop-opacity="1" stop-color="rgb(6.68335%, 58.840942%, 96.038818%)" offset="0.304687"/><stop stop-opacity="1" stop-color="rgb(6.613159%, 58.615112%, 95.947266%)" offset="0.3125"/><stop stop-opacity="1" stop-color="rgb(6.542969%, 58.390808%, 95.854187%)" offset="0.320312"/><stop stop-opacity="1" stop-color="rgb(6.472778%, 58.166504%, 95.761108%)" offset="0.328125"/><stop stop-opacity="1" stop-color="rgb(6.402588%, 57.940674%, 95.669556%)" offset="0.335937"/><stop stop-opacity="1" stop-color="rgb(6.330872%, 57.71637%, 95.576477%)" offset="0.34375"/><stop stop-opacity="1" stop-color="rgb(6.260681%, 57.492065%, 95.484924%)" offset="0.351562"/><stop stop-opacity="1" stop-color="rgb(6.190491%, 57.266235%, 95.391846%)" offset="0.359375"/><stop stop-opacity="1" stop-color="rgb(6.1203%, 57.041931%, 95.298767%)" offset="0.367187"/><stop stop-opacity="1" stop-color="rgb(6.048584%, 56.816101%, 95.207214%)" offset="0.375"/><stop stop-opacity="1" stop-color="rgb(5.978394%, 56.591797%, 95.114136%)" offset="0.382812"/><stop stop-opacity="1" stop-color="rgb(5.908203%, 56.367493%, 95.022583%)" offset="0.390625"/><stop stop-opacity="1" stop-color="rgb(5.838013%, 56.141663%, 94.929504%)" offset="0.398437"/><stop stop-opacity="1" stop-color="rgb(5.767822%, 55.917358%, 94.836426%)" offset="0.40625"/><stop stop-opacity="1" stop-color="rgb(5.696106%, 55.691528%, 94.744873%)" offset="0.414062"/><stop stop-opacity="1" stop-color="rgb(5.625916%, 55.467224%, 94.651794%)" offset="0.421875"/><stop stop-opacity="1" stop-color="rgb(5.555725%, 55.24292%, 94.560242%)" offset="0.429687"/><stop stop-opacity="1" stop-color="rgb(5.485535%, 55.01709%, 94.467163%)" offset="0.4375"/><stop stop-opacity="1" stop-color="rgb(5.415344%, 54.792786%, 94.374084%)" offset="0.445312"/><stop stop-opacity="1" stop-color="rgb(5.343628%, 54.568481%, 94.282532%)" offset="0.453125"/><stop stop-opacity="1" stop-color="rgb(5.273438%, 54.342651%, 94.189453%)" offset="0.460937"/><stop stop-opacity="1" stop-color="rgb(5.203247%, 54.118347%, 94.0979%)" offset="0.46875"/><stop stop-opacity="1" stop-color="rgb(5.133057%, 53.892517%, 94.004822%)" offset="0.476562"/><stop stop-opacity="1" stop-color="rgb(5.06134%, 53.668213%, 93.911743%)" offset="0.484375"/><stop stop-opacity="1" stop-color="rgb(4.99115%, 53.443909%, 93.82019%)" offset="0.492187"/><stop stop-opacity="1" stop-color="rgb(4.920959%, 53.218079%, 93.727112%)" offset="0.5"/><stop stop-opacity="1" stop-color="rgb(4.850769%, 52.993774%, 93.635559%)" offset="0.507812"/><stop stop-opacity="1" stop-color="rgb(4.780579%, 52.76947%, 93.54248%)" offset="0.515625"/><stop stop-opacity="1" stop-color="rgb(4.708862%, 52.54364%, 93.449402%)" offset="0.523438"/><stop stop-opacity="1" stop-color="rgb(4.638672%, 52.319336%, 93.357849%)" offset="0.53125"/><stop stop-opacity="1" stop-color="rgb(4.568481%, 52.093506%, 93.264771%)" offset="0.539062"/><stop stop-opacity="1" stop-color="rgb(4.498291%, 51.869202%, 93.173218%)" offset="0.546875"/><stop stop-opacity="1" stop-color="rgb(4.426575%, 51.644897%, 93.080139%)" offset="0.554688"/><stop stop-opacity="1" stop-color="rgb(4.356384%, 51.419067%, 92.987061%)" offset="0.5625"/><stop stop-opacity="1" stop-color="rgb(4.286194%, 51.194763%, 92.895508%)" offset="0.570312"/><stop stop-opacity="1" stop-color="rgb(4.216003%, 50.968933%, 92.802429%)" offset="0.578125"/><stop stop-opacity="1" stop-color="rgb(4.145813%, 50.744629%, 92.710876%)" offset="0.585938"/><stop stop-opacity="1" stop-color="rgb(4.074097%, 50.520325%, 92.617798%)" offset="0.59375"/><stop stop-opacity="1" stop-color="rgb(4.003906%, 50.294495%, 92.524719%)" offset="0.601562"/><stop stop-opacity="1" stop-color="rgb(3.933716%, 50.07019%, 92.433167%)" offset="0.609375"/><stop stop-opacity="1" stop-color="rgb(3.863525%, 49.845886%, 92.340088%)" offset="0.617187"/><stop stop-opacity="1" stop-color="rgb(3.793335%, 49.620056%, 92.248535%)" offset="0.625"/><stop stop-opacity="1" stop-color="rgb(3.721619%, 49.395752%, 92.155457%)" offset="0.632812"/><stop stop-opacity="1" stop-color="rgb(3.651428%, 49.169922%, 92.063904%)" offset="0.640625"/><stop stop-opacity="1" stop-color="rgb(3.581238%, 48.945618%, 91.970825%)" offset="0.648437"/><stop stop-opacity="1" stop-color="rgb(3.511047%, 48.721313%, 91.877747%)" offset="0.65625"/><stop stop-opacity="1" stop-color="rgb(3.439331%, 48.495483%, 91.786194%)" offset="0.664062"/><stop stop-opacity="1" stop-color="rgb(3.369141%, 48.271179%, 91.693115%)" offset="0.671875"/><stop stop-opacity="1" stop-color="rgb(3.29895%, 48.046875%, 91.601562%)" offset="0.679687"/><stop stop-opacity="1" stop-color="rgb(3.22876%, 47.821045%, 91.508484%)" offset="0.6875"/><stop stop-opacity="1" stop-color="rgb(3.158569%, 47.596741%, 91.415405%)" offset="0.695312"/><stop stop-opacity="1" stop-color="rgb(3.086853%, 47.370911%, 91.323853%)" offset="0.703125"/><stop stop-opacity="1" stop-color="rgb(3.016663%, 47.146606%, 91.230774%)" offset="0.710937"/><stop stop-opacity="1" stop-color="rgb(2.946472%, 46.922302%, 91.139221%)" offset="0.71875"/><stop stop-opacity="1" stop-color="rgb(2.876282%, 46.696472%, 91.046143%)" offset="0.726562"/><stop stop-opacity="1" stop-color="rgb(2.804565%, 46.472168%, 90.953064%)" offset="0.734375"/><stop stop-opacity="1" stop-color="rgb(2.734375%, 46.246338%, 90.861511%)" offset="0.742187"/><stop stop-opacity="1" stop-color="rgb(2.664185%, 46.022034%, 90.768433%)" offset="0.75"/><stop stop-opacity="1" stop-color="rgb(2.593994%, 45.797729%, 90.67688%)" offset="0.757812"/><stop stop-opacity="1" stop-color="rgb(2.523804%, 45.571899%, 90.583801%)" offset="0.765625"/><stop stop-opacity="1" stop-color="rgb(2.452087%, 45.347595%, 90.490723%)" offset="0.773438"/><stop stop-opacity="1" stop-color="rgb(2.381897%, 45.123291%, 90.39917%)" offset="0.78125"/><stop stop-opacity="1" stop-color="rgb(2.311707%, 44.897461%, 90.306091%)" offset="0.789062"/><stop stop-opacity="1" stop-color="rgb(2.241516%, 44.673157%, 90.214539%)" offset="0.796875"/><stop stop-opacity="1" stop-color="rgb(2.171326%, 44.447327%, 90.12146%)" offset="0.804688"/><stop stop-opacity="1" stop-color="rgb(2.099609%, 44.223022%, 90.028381%)" offset="0.8125"/><stop stop-opacity="1" stop-color="rgb(2.029419%, 43.998718%, 89.936829%)" offset="0.820312"/><stop stop-opacity="1" stop-color="rgb(1.959229%, 43.772888%, 89.84375%)" offset="0.828125"/><stop stop-opacity="1" stop-color="rgb(1.889038%, 43.548584%, 89.752197%)" offset="0.835938"/><stop stop-opacity="1" stop-color="rgb(1.817322%, 43.32428%, 89.659119%)" offset="0.84375"/><stop stop-opacity="1" stop-color="rgb(1.747131%, 43.09845%, 89.56604%)" offset="0.851562"/><stop stop-opacity="1" stop-color="rgb(1.676941%, 42.874146%, 89.474487%)" offset="0.859375"/><stop stop-opacity="1" stop-color="rgb(1.60675%, 42.648315%, 89.381409%)" offset="0.867187"/><stop stop-opacity="1" stop-color="rgb(1.53656%, 42.424011%, 89.289856%)" offset="0.875"/><stop stop-opacity="1" stop-color="rgb(1.464844%, 42.199707%, 89.196777%)" offset="0.882812"/><stop stop-opacity="1" stop-color="rgb(1.394653%, 41.973877%, 89.103699%)" offset="0.890625"/><stop stop-opacity="1" stop-color="rgb(1.324463%, 41.749573%, 89.012146%)" offset="0.898437"/><stop stop-opacity="1" stop-color="rgb(1.254272%, 41.523743%, 88.919067%)" offset="0.90625"/><stop stop-opacity="1" stop-color="rgb(1.182556%, 41.299438%, 88.827515%)" offset="0.914062"/><stop stop-opacity="1" stop-color="rgb(1.112366%, 41.075134%, 88.734436%)" offset="0.921875"/><stop stop-opacity="1" stop-color="rgb(1.042175%, 40.849304%, 88.641357%)" offset="0.929687"/><stop stop-opacity="1" stop-color="rgb(0.971985%, 40.625%, 88.549805%)" offset="0.9375"/><stop stop-opacity="1" stop-color="rgb(0.901794%, 40.400696%, 88.456726%)" offset="0.945312"/><stop stop-opacity="1" stop-color="rgb(0.830078%, 40.174866%, 88.365173%)" offset="0.953125"/><stop stop-opacity="1" stop-color="rgb(0.759888%, 39.950562%, 88.272095%)" offset="0.960937"/><stop stop-opacity="1" stop-color="rgb(0.689697%, 39.724731%, 88.179016%)" offset="0.96875"/><stop stop-opacity="1" stop-color="rgb(0.619507%, 39.500427%, 88.087463%)" offset="0.976562"/><stop stop-opacity="1" stop-color="rgb(0.549316%, 39.276123%, 87.994385%)" offset="0.984375"/><stop stop-opacity="1" stop-color="rgb(0.456238%, 38.980103%, 87.87384%)" offset="1"/></linearGradient></defs><g clip-path="url(#be8da584ea)"><g clip-path="url(#bba2163252)"><path fill="url(#734658fb6b)" d="M 0.4375 1.609375 L 0.4375 808.796875 L 807.625 808.796875 L 807.625 1.609375 Z M 0.4375 1.609375 " fill-rule="nonzero"/></g></g><path fill="#ffffff" d="M 554.332031 528.632812 L 572.257812 414.71875 L 460.105469 414.71875 L 460.105469 340.828125 C 460.105469 309.65625 475.746094 279.253906 525.980469 279.253906 L 577 279.253906 L 577 182.273438 C 577 182.273438 530.714844 174.578125 486.488281 174.578125 C 394.078125 174.578125 333.738281 229.148438 333.738281 327.894531 L 333.738281 414.71875 L 231.0625 414.71875 L 231.0625 528.632812 L 333.738281 528.632812 L 333.738281 804.023438 C 354.351562 807.179688 375.4375 808.796875 396.921875 808.796875 C 418.402344 808.796875 439.496094 807.179688 460.105469 804.023438 L 460.105469 528.632812 Z M 554.332031 528.632812 " fill-opacity="1" fill-rule="nonzero"/></svg>